<svg width="22" height="28" viewBox="0 0 22 28" fill="none" xmlns="http://www.w3.org/2000/svg">
<path fill-rule="evenodd" clip-rule="evenodd" d="M1.93844 5.47557C1.13481 6.98751 0.714251 8.677 0.714304 10.3932C0.712394 11.7863 0.988631 13.1655 1.52649 14.4483C2.06435 15.731 2.85277 16.891 3.84459 17.8587C4.16931 18.1616 4.433 18.5251 4.62116 18.9292L5.92573 21.9951C5.99213 22.1506 6.10222 22.2831 6.24239 22.3761C6.38255 22.4691 6.54663 22.5185 6.7143 22.5182H15.2857C15.4531 22.5181 15.6168 22.4686 15.7566 22.3756C15.8965 22.2827 16.0063 22.1504 16.0726 21.9951L17.0217 19.7686C16.5162 19.8239 15.9996 19.7794 15.5088 19.6429C12.3047 18.7503 9.17822 18.8617 7.84078 18.9706C7.45232 19.0022 7.07263 18.8386 6.84261 18.5226C6.71888 18.3527 6.64892 18.1489 6.64195 17.9382C6.63498 17.7274 6.69134 17.5196 6.80358 17.3421C7.2144 16.6764 8.00849 15.7852 9.46701 15.1862L3.35937 9.91796C3.26733 9.83857 3.19162 9.74165 3.13655 9.63273C3.08148 9.52381 3.04813 9.40503 3.03841 9.28316C3.01879 9.03703 3.09659 8.79328 3.25471 8.60554C3.33301 8.51258 3.42866 8.43616 3.53622 8.38066C3.64378 8.32515 3.76112 8.29164 3.88157 8.28204C4.00201 8.27244 4.12319 8.28694 4.23818 8.32471C4.35318 8.36248 4.45973 8.42278 4.55177 8.50217L8.62199 12.0134C8.74756 12.1204 8.90954 12.1733 9.07306 12.1607C9.23657 12.1482 9.38855 12.0711 9.49628 11.9462C9.60401 11.8213 9.65888 11.6585 9.64907 11.4929C9.63926 11.3272 9.56555 11.172 9.44382 11.0605L4.8978 6.9408C4.80375 6.86039 4.72655 6.76175 4.67077 6.65071C4.615 6.53967 4.58178 6.41848 4.57308 6.29431C4.56438 6.17015 4.58037 6.04552 4.62012 5.92781C4.65987 5.8101 4.72256 5.7017 4.80449 5.60901C4.88642 5.51632 4.98592 5.44123 5.0971 5.38818C5.20829 5.33513 5.3289 5.30519 5.45182 5.30014C5.57473 5.29509 5.69744 5.31503 5.8127 5.35879C5.92795 5.40254 6.0334 5.46921 6.12283 5.55486L10.9979 9.97051C11.1262 10.0823 11.2926 10.1389 11.4614 10.1282C11.6303 10.1174 11.7881 10.0401 11.901 9.91294C12.014 9.78574 12.0731 9.61872 12.0657 9.44771C12.0584 9.27669 11.985 9.11528 11.8615 8.99809L8.57152 5.99637C8.39532 5.82957 8.29073 5.59961 8.28024 5.35594C8.26975 5.11226 8.3542 4.87433 8.51542 4.69332C8.67664 4.51231 8.90176 4.40268 9.14237 4.38801C9.38297 4.37333 9.61984 4.45478 9.80204 4.61484L13.4292 7.92391C13.5559 8.04054 13.7232 8.10156 13.8941 8.09354C14.0651 8.08553 14.2257 8.00913 14.3408 7.88116C14.4558 7.75319 14.5158 7.58412 14.5076 7.41116C14.4993 7.23819 14.4235 7.0755 14.2968 6.95886L12.2402 5.04833C12.0603 4.88109 11.9534 4.64853 11.9428 4.40182C11.9323 4.15511 12.019 3.91446 12.184 3.7328C12.349 3.55115 12.5787 3.44338 12.8225 3.43319C13.0663 3.423 13.3044 3.51124 13.4842 3.67849C14.1821 4.32699 14.8898 4.96533 15.5973 5.60358C16.449 6.37182 17.3006 7.13994 18.1346 7.92547C18.906 8.65348 19.8595 9.65262 20.3621 10.5956C20.6573 11.1494 20.9034 11.7466 21.106 12.3272C21.3431 11.0625 21.3463 9.76061 21.1115 8.48808C20.8002 6.80097 20.0803 5.218 19.016 3.88053C17.9517 2.54306 16.5761 1.49271 15.0122 0.823275C13.4482 0.153841 11.7445 -0.113844 10.0533 0.0441218C8.36198 0.202088 6.73574 0.780789 5.31974 1.72855C3.90374 2.67631 2.74207 3.96364 1.93844 5.47557ZM14.6731 2.31993C14.8373 2.2381 15.027 2.22569 15.2006 2.28542C15.94 2.53997 16.8326 2.99572 17.4882 4.22573C17.5751 4.38884 17.5945 4.58008 17.5421 4.75739C17.4897 4.9347 17.3698 5.08354 17.2087 5.17118C17.0477 5.25883 16.8587 5.27808 16.6833 5.22472C16.508 5.17136 16.3606 5.04974 16.2737 4.88663C15.8375 4.06827 15.2921 3.7917 14.7578 3.60851C14.5843 3.54878 14.4412 3.42179 14.36 3.25549C14.2788 3.08919 14.2662 2.89719 14.3249 2.72174C14.3836 2.54629 14.5088 2.40175 14.6731 2.31993Z" fill="#FF5B4D"/>
<path d="M6.10821 24.504C5.94746 24.6664 5.85716 24.8867 5.85716 25.1164C5.85716 25.3461 5.94746 25.5664 6.10821 25.7288C6.26896 25.8912 6.48697 25.9825 6.7143 25.9825L7.0983 26.7567C7.24057 27.0444 7.45929 27.2864 7.72997 27.4556C8.00065 27.6247 8.31259 27.7144 8.63087 27.7146H13.3692C13.6874 27.7144 13.9994 27.6247 14.2701 27.4556C14.5407 27.2864 14.7595 27.0444 14.9017 26.7567L15.2857 25.9825C15.5131 25.9825 15.7311 25.8912 15.8918 25.7288C16.0526 25.5664 16.1429 25.3461 16.1429 25.1164C16.1429 24.8867 16.0526 24.6664 15.8918 24.504C15.7311 24.3416 15.5131 24.2503 15.2857 24.2503H6.7143C6.48697 24.2503 6.26896 24.3416 6.10821 24.504Z" fill="#FF5B4D"/>
</svg>
