<svg width="678" height="115" viewBox="0 0 678 115" fill="none" xmlns="http://www.w3.org/2000/svg">
<path d="M80.3095 83.0008C79.7389 83.0008 79.209 82.8658 78.7199 82.5959C77.1711 82.056 76.0707 80.5038 75.4186 77.9393C74.9295 75.6448 75.0517 73.0803 75.7854 70.2459C76.6005 67.4115 77.6602 64.2397 78.9645 60.7304C79.4536 59.5156 79.9019 58.3009 80.3095 57.0861C80.7986 55.7364 81.2061 54.5217 81.5322 53.4419C81.6952 53.037 81.8175 52.6995 81.899 52.4296C81.9805 52.0247 82.0621 51.6873 82.1436 51.4173C79.6981 50.7425 76.8451 50.6075 73.5845 51.0124C70.4054 51.2823 66.8187 52.2946 62.8245 54.0493C59.3193 55.534 55.5289 57.4911 51.4531 59.9206C47.4588 62.2151 42.424 66.4599 38.0571 68.2675C37.1604 68.8074 34.7819 66.4599 34.7819 66.4599C34.7819 66.4599 34.3817 66.069 34.0904 65.1845C33.6013 63.6998 33.5605 62.1476 33.9681 60.5279C34.3757 58.7733 37.1604 55.6966 38.0571 55.1567C43.3933 52.078 44.8504 50.8099 49.0076 48.3804C53.2464 45.816 57.2407 43.7914 60.9904 42.3067C71.0167 38.1226 79.209 37.4477 85.5672 40.2821C87.4421 41.092 88.7463 42.9816 89.4799 45.9509C90.2136 48.9203 90.0505 52.2272 88.9908 55.8714C87.9311 59.5156 86.6677 63.2949 85.2004 67.209C85.1189 67.479 84.9966 67.8164 84.8336 68.2213C84.6705 68.6263 84.5075 69.0987 84.3445 69.6385C86.2193 68.9637 88.9908 67.614 92.659 65.5894C96.3272 63.5648 101.381 60.5954 107.821 56.6812C108.718 56.1413 109.614 56.2763 110.511 57.0861C111.489 57.761 112.141 58.9083 112.467 60.5279C112.875 62.0126 112.875 63.5648 112.467 65.1845C112.06 66.6692 111.326 67.7489 110.266 68.4238C106.517 70.5834 103.093 72.5404 99.9954 74.2951C96.8978 76.0497 94.1263 77.5344 91.6809 78.7492C88.4202 80.3688 85.934 81.5161 84.2222 82.1909C82.5104 82.7308 81.2061 83.0008 80.3095 83.0008Z" fill="#2647C4"/>
<path fill-rule="evenodd" clip-rule="evenodd" d="M32.6724 68.593L32.6587 68.5793L32.6294 68.5496C32.6091 68.5288 32.5873 68.5059 32.5642 68.481C32.5179 68.4311 32.4663 68.3728 32.4105 68.3059C32.2988 68.172 32.1706 68.0033 32.036 67.7979C31.7658 67.3856 31.4742 66.831 31.241 66.1231C30.5641 64.0685 30.5226 61.9427 31.053 59.8187C31.2654 58.9282 31.7039 58.0963 32.0933 57.4594C32.514 56.7715 33.0131 56.0944 33.5021 55.4934C33.9936 54.8893 34.5084 54.321 34.9806 53.8509C35.3927 53.4406 35.9519 52.9223 36.5096 52.5866L36.5336 52.5721L36.5579 52.5581C39.1642 51.0544 40.815 49.9982 42.3424 49.0079C42.481 48.9181 42.6189 48.8285 42.7567 48.7391C44.1469 47.8365 45.529 46.9392 47.4742 45.8018C51.8085 43.1808 55.9383 41.0825 59.8603 39.5275C70.2124 35.2121 79.3366 34.2266 86.774 37.5355C89.8616 38.8774 91.5512 41.8269 92.3923 45.2314C93.2798 48.8234 93.0435 52.6786 91.8715 56.709C91.195 59.0354 90.4385 61.4114 89.6024 63.8371C90.1135 63.5634 90.649 63.2721 91.2094 62.9629C94.823 60.9684 99.8354 58.0243 106.263 54.1176L106.273 54.1111C107.223 53.5395 108.369 53.2238 109.612 53.4109C110.731 53.5794 111.653 54.1136 112.376 54.7316C114.074 55.9779 114.971 57.8529 115.387 59.8346C115.915 61.8281 115.891 63.8735 115.377 65.9166L115.369 65.9477L115.36 65.9786C114.802 68.0115 113.699 69.7943 111.878 70.9542L111.821 70.9901L111.764 71.0235C108.009 73.1859 104.579 75.1466 101.474 76.9054C98.3424 78.6793 95.5216 80.191 93.0154 81.4359C89.7369 83.0645 87.1576 84.2584 85.3225 84.9819L85.2247 85.0204L85.1245 85.052C83.3518 85.6111 81.6853 86.0008 80.3095 86.0008C79.3286 86.0008 78.3784 85.7824 77.4985 85.3424C74.6796 84.2439 73.2351 81.5261 72.5111 78.6787L72.4967 78.622L72.4845 78.5647C71.8773 75.7163 72.0591 72.6699 72.8811 69.4942L72.8911 69.4553L72.9022 69.4167C73.743 66.4932 74.8284 63.2477 76.1524 59.6853L76.1665 59.6474L76.1815 59.6099C76.6491 58.4487 77.0769 57.2894 77.4653 56.1318L77.4767 56.0978L77.4889 56.0641C77.7803 55.2598 78.0394 54.5119 78.267 53.8194C76.9753 53.7416 75.5413 53.7924 73.9542 53.9895L73.8963 53.9967L73.8383 54.0016C71.084 54.2355 67.8263 55.1287 64.031 56.7959L64.0128 56.8039L63.9945 56.8117C60.6417 58.2318 56.9746 60.1218 52.9891 62.4975L52.9684 62.5098L52.9474 62.5219C51.5348 63.3334 49.9959 64.3989 48.2803 65.5868C47.7343 65.9648 47.1705 66.3552 46.5871 66.7537C44.3287 68.2966 41.7982 69.9443 39.3365 70.9842C37.8802 71.7029 36.4689 71.1703 36.0219 70.9857C35.3428 70.7052 34.734 70.2976 34.3066 69.9835C33.8509 69.6486 33.4488 69.3054 33.1693 69.0558C33.0267 68.9285 32.9092 68.8194 32.825 68.7397C32.7827 68.6998 32.7484 68.6669 32.7231 68.6424L32.6918 68.612L32.6824 68.6027L32.6814 68.6018L32.6759 68.5964L32.6724 68.593ZM38.057 68.2675C40.7482 67.1535 43.693 65.114 46.4915 63.1757C48.2343 61.9688 49.9203 60.8011 51.4531 59.9205C55.5288 57.491 59.3193 55.5339 62.8244 54.0493C66.8187 52.2946 70.4054 51.2823 73.5844 51.0124C75.6055 50.7614 77.4699 50.7178 79.1778 50.8817C80.2253 50.9822 81.2139 51.1607 82.1435 51.4173C82.1128 51.5191 82.0821 51.6304 82.0513 51.7514C82.0006 51.9513 81.9498 52.1773 81.899 52.4296C81.8515 52.5869 81.7902 52.767 81.715 52.9701C81.6612 53.1156 81.6002 53.2729 81.5322 53.4419C81.4496 53.7154 81.3618 53.9975 81.2687 54.2883C80.9944 55.1456 80.6747 56.0783 80.3095 57.0861C79.9019 58.3009 79.4535 59.5156 78.9645 60.7304C77.6602 64.2396 76.6005 67.4115 75.7854 70.2459C75.0517 73.0803 74.9294 75.6448 75.4185 77.9393C76.0707 80.5038 77.1711 82.056 78.7199 82.5958C79.209 82.8658 79.7388 83.0008 80.3095 83.0008C81.2061 83.0008 82.5104 82.7308 84.2222 82.1909C85.934 81.5161 88.4202 80.3688 91.6808 78.7491C94.1263 77.5344 96.8978 76.0497 99.9954 74.2951C103.093 72.5404 106.517 70.5833 110.266 68.4238C111.326 67.7489 112.06 66.6691 112.467 65.1845C112.875 63.5648 112.875 62.0126 112.467 60.5279C112.141 58.9083 111.489 57.761 110.511 57.0861C109.614 56.2763 108.718 56.1413 107.821 56.6812C101.381 60.5954 96.3272 63.5648 92.659 65.5894C90.9496 66.5329 89.4349 67.3298 88.1149 67.9801C88.0689 68.0028 88.0231 68.0253 87.9775 68.0477C87.8986 68.0863 87.8203 68.1245 87.7428 68.1621C87.2422 68.405 86.7712 68.6256 86.3299 68.8238C85.5832 69.1593 84.9214 69.4309 84.3445 69.6385C84.5075 69.0986 84.6705 68.6262 84.8335 68.2213C84.9966 67.8164 85.1189 67.479 85.2004 67.209C85.3768 66.7383 85.5503 66.2696 85.7209 65.8028C86.9686 62.3878 88.0586 59.0774 88.9908 55.8714C90.0505 52.2271 90.2136 48.9203 89.4799 45.9509C88.7463 42.9815 87.442 41.0919 85.5672 40.2821C79.209 37.4477 71.0167 38.1226 60.9903 42.3067C57.2406 43.7914 53.2464 45.816 49.0076 48.3804C47.1149 49.4865 45.7819 50.3519 44.3876 51.257C42.7195 52.3399 40.9638 53.4797 38.057 55.1567C37.1604 55.6966 34.3756 58.7733 33.9681 60.5279C33.5605 62.1476 33.6012 63.6998 34.0903 65.1845C34.3817 66.0689 34.7819 66.4598 34.7819 66.4598C34.7819 66.4598 37.1604 68.8074 38.057 68.2675Z" fill="#2647C4"/>
<path d="M22.9427 76.754C22.5351 76.754 22.2091 76.6865 21.9645 76.5516C20.6603 76.0117 19.7228 75.2019 19.1522 74.1221C18.6631 72.9073 18.3371 71.9625 18.1741 71.2877C17.6035 68.3183 17.8072 65.2814 18.7854 62.177C19.7636 58.9377 21.0271 55.5634 22.5759 52.0542C23.065 50.9744 23.5133 49.8271 23.9209 48.6124C24.41 47.2626 24.8175 46.1154 25.1436 45.1706C25.2251 45.0356 25.3474 44.7657 25.5104 44.3607C25.0213 44.6307 24.41 45.0356 23.6763 45.5755C23.0242 46.1154 22.2498 46.9252 21.3531 48.005C19.8859 49.4897 18.3371 51.4468 16.7068 53.8763C15.0765 56.1708 13.4054 58.6003 11.6936 61.1648C11.286 61.7046 10.8377 62.312 10.3486 62.9869C9.94102 63.6617 9.53344 64.3366 9.12587 65.0115C8.39223 66.0912 7.53632 66.6311 6.55814 66.6311C5.49844 66.4962 4.64253 65.7538 3.99041 64.4041C3.25677 63.1893 2.93071 61.7721 3.01223 60.1525C3.09374 58.3978 3.50132 56.9806 4.23496 55.9009C4.64253 55.226 5.09087 54.5511 5.57996 53.8763C5.98753 53.2014 6.39511 52.594 6.80268 52.0542C9.41117 48.14 11.9789 44.5632 14.5059 41.3239C17.0328 37.9496 19.5191 35.3851 21.9645 33.6305C24.41 31.8758 26.7739 31.5384 29.0563 32.6182C30.4421 33.1581 31.4203 34.1029 31.9909 35.4526C32.643 36.6673 33.0098 37.7471 33.0913 38.6919C33.825 41.6613 33.6619 44.8331 32.6022 48.2074C31.5426 51.4468 30.1975 55.0235 28.5672 58.9377C28.4042 59.2077 28.2004 59.6801 27.9559 60.3549C27.7929 60.8948 27.5891 61.4347 27.3445 61.9746C28.5672 61.1648 30.1568 60.1525 32.1132 58.9377C34.0695 57.723 36.4335 56.2383 39.205 54.4836C40.2647 53.9438 41.2429 54.0787 42.1395 54.8886C43.0362 55.5634 43.6476 56.7107 43.9736 58.3304C44.3812 59.815 44.3404 61.3672 43.8514 62.9869C43.4438 64.4716 42.7916 65.5514 41.895 66.2262C39.2865 67.7109 36.9226 69.0606 34.8032 70.2754C32.6838 71.4901 30.8904 72.5699 29.4232 73.5147C28.608 74.0546 27.8744 74.527 27.2222 74.9319C26.6516 75.2019 26.1218 75.4718 25.6327 75.7417C25.0621 76.0117 24.573 76.2816 24.1654 76.5516C23.7578 76.6865 23.3503 76.754 22.9427 76.754Z" fill="#111F55"/>
<path fill-rule="evenodd" clip-rule="evenodd" d="M31.7101 59.1883C31.8426 59.1058 31.977 59.0222 32.1131 58.9377C34.0695 57.7229 36.4334 56.2383 39.2049 54.4836C40.2646 53.9437 41.2428 54.0787 42.1395 54.8885C43.0361 55.5634 43.6475 56.7107 43.9736 58.3303C44.3811 59.815 44.3404 61.3672 43.8513 62.9869C43.4437 64.4715 42.7916 65.5513 41.8949 66.2262C39.2864 67.7109 36.9225 69.0606 34.8031 70.2753C32.6837 71.4901 30.8904 72.5699 29.4231 73.5147C28.608 74.0546 27.8743 74.527 27.2222 74.9319C26.6516 75.2018 26.1217 75.4718 25.6326 75.7417C25.062 76.0117 24.5729 76.2816 24.1654 76.5515C23.7578 76.6865 23.3502 76.754 22.9426 76.754C22.5351 76.754 22.209 76.6865 21.9645 76.5515C20.6602 76.0117 19.7228 75.2018 19.1522 74.122C18.6631 72.9073 18.337 71.9625 18.174 71.2876C17.6034 68.3182 17.8072 65.2814 18.7854 62.177C19.7635 58.9377 21.027 55.5634 22.5758 52.0541C22.8339 51.4845 23.0805 50.896 23.3159 50.2888C23.348 50.2059 23.3799 50.1228 23.4116 50.0393C23.4427 49.957 23.4737 49.8745 23.5045 49.7915C23.6477 49.4058 23.7865 49.0127 23.9208 48.6123C24.1575 47.9591 24.3751 47.3533 24.5737 46.7949C24.585 46.7631 24.5962 46.7315 24.6074 46.7001C24.8055 46.1419 24.9843 45.6321 25.1436 45.1705C25.2251 45.0356 25.3473 44.7656 25.5104 44.3607C25.2602 44.4988 24.9781 44.6722 24.6639 44.8809C24.6237 44.9076 24.5829 44.9349 24.5416 44.9628C24.275 45.1429 23.9866 45.3471 23.6763 45.5755C23.075 46.0732 22.3699 46.8004 21.5608 47.7571C21.5469 47.7735 21.533 47.79 21.5191 47.8065C21.4642 47.8716 21.4089 47.9378 21.3531 48.005C21.1442 48.2163 20.9337 48.4372 20.7215 48.6677C19.4432 50.0564 18.105 51.7926 16.7067 53.8762C15.0764 56.1708 13.4054 58.6003 11.6935 61.1647C11.286 61.7046 10.8376 62.312 10.3485 62.9869L9.12581 65.0114C8.39218 66.0912 7.53627 66.6311 6.55808 66.6311C5.49839 66.4961 4.64248 65.7538 3.99035 64.4041C3.25672 63.1893 2.93066 61.7721 3.01217 60.1524C3.09369 58.3978 3.50126 56.9806 4.2349 55.9008C4.64248 55.226 5.09081 54.5511 5.5799 53.8762C5.98748 53.2014 6.39505 52.594 6.80263 52.0541C9.41112 48.1399 11.9788 44.5632 14.5058 41.3238C17.0328 37.9495 19.519 35.3851 21.9645 33.6304C24.4099 31.8758 26.7739 31.5384 29.0563 32.6181C30.442 33.158 31.4202 34.1028 31.9908 35.4526C32.643 36.6673 33.0098 37.7471 33.0913 38.6919C33.8249 41.6613 33.6619 44.8331 32.6022 48.2074C31.7053 50.9492 30.604 53.9326 29.2983 57.1578C29.0613 57.7431 28.8176 58.3364 28.5672 58.9377C28.4042 59.2076 28.2004 59.68 27.9558 60.3549C27.7928 60.8948 27.589 61.4347 27.3445 61.9746C27.8805 61.6195 28.4871 61.2256 29.1641 60.7927C29.1898 60.7763 29.2157 60.7598 29.2417 60.7432C29.5988 60.5151 29.9752 60.2764 30.3709 60.027C30.4773 59.96 30.585 59.8922 30.6942 59.8236C31.0204 59.6187 31.359 59.407 31.7101 59.1883ZM33.5613 54.496C34.7932 53.7227 36.1395 52.8737 37.6002 51.9489L37.7184 51.8741L37.8431 51.8105C38.8054 51.3202 39.9318 51.0409 41.1434 51.2081C42.3007 51.3678 43.2726 51.8985 44.0506 52.5739C45.6599 53.8379 46.4906 55.7086 46.8941 57.6383C47.4324 59.6765 47.3495 61.759 46.7341 63.8178C46.2133 65.6936 45.2819 67.4318 43.699 68.6232L43.5457 68.7385L43.3789 68.8334C40.7725 70.317 38.4112 71.6652 36.2949 72.8781C34.212 74.072 32.471 75.1207 31.0632 76.0267C30.2363 76.5742 29.4829 77.0594 28.8047 77.4805L28.6596 77.5707L28.5051 77.6437C27.9839 77.8903 27.5102 78.132 27.0823 78.3682L27.0003 78.4135L26.9156 78.4536C26.4392 78.6789 26.0816 78.8807 25.8219 79.0527L25.4883 79.2737L25.1085 79.3994C24.413 79.6298 23.6875 79.754 22.9426 79.754C22.2949 79.754 21.4861 79.66 20.6965 79.2727C18.9064 78.5054 17.4262 77.2769 16.4998 75.5237L16.4273 75.3865L16.3693 75.2425C15.8645 73.9887 15.473 72.8826 15.2579 71.9921L15.2413 71.9233L15.2279 71.8538C14.5574 68.3645 14.8072 64.8288 15.9185 61.293C16.11 60.6593 16.3118 60.0215 16.5237 59.3795C15.7546 60.5003 14.9762 61.6505 14.1887 62.8303L14.1404 62.9027L14.0879 62.9723C13.7145 63.4668 13.3025 64.0244 12.8512 64.646L11.6523 66.631L11.6072 66.6974C10.5214 68.2956 8.84797 69.6311 6.55808 69.6311H6.3678L6.17904 69.6071C3.79244 69.3031 2.25843 67.6472 1.35073 65.8344C0.319121 64.069 -0.0880278 62.0869 0.0156707 60.0075C0.113499 57.9174 0.60527 55.941 1.70512 54.2868C2.12711 53.592 2.5849 52.9022 3.07742 52.2173C3.49189 51.5377 3.91673 50.9036 4.35332 50.3198C6.97517 46.3888 9.56468 42.7818 12.1224 39.5017C14.7597 35.9837 17.4501 33.1772 20.2155 31.193C23.3156 28.9687 26.8009 28.2751 30.2448 29.8622C32.2775 30.6814 33.8087 32.1435 34.6957 34.1495C35.3863 35.4587 35.8938 36.8167 36.0547 38.1839C36.8795 41.7016 36.6391 45.3658 35.4644 49.1063L35.459 49.1233L35.4535 49.1402C34.897 50.8414 34.266 52.6269 33.5613 54.496Z" fill="#111F55"/>
<path d="M158.602 22.1818V92H143.841V22.1818H158.602ZM183.077 61.7273V92H168.555V39.6364H182.396V48.875H183.009C184.168 45.8295 186.111 43.4205 188.839 41.6477C191.566 39.8523 194.873 38.9545 198.759 38.9545C202.396 38.9545 205.566 39.75 208.271 41.3409C210.975 42.9318 213.077 45.2045 214.577 48.1591C216.077 51.0909 216.827 54.5909 216.827 58.6591V92H202.305V61.25C202.327 58.0455 201.509 55.5455 199.85 53.75C198.191 51.9318 195.907 51.0227 192.998 51.0227C191.043 51.0227 189.316 51.4432 187.816 52.2841C186.339 53.125 185.18 54.3523 184.339 55.9659C183.521 57.5568 183.1 59.4773 183.077 61.7273ZM254.206 39.6364V50.5455H222.672V39.6364H254.206ZM229.831 27.0909H244.353V75.9091C244.353 77.25 244.558 78.2955 244.967 79.0455C245.376 79.7727 245.944 80.2841 246.672 80.5795C247.422 80.875 248.285 81.0227 249.262 81.0227C249.944 81.0227 250.626 80.9659 251.308 80.8523C251.99 80.7159 252.512 80.6136 252.876 80.5455L255.16 91.3523C254.433 91.5795 253.41 91.8409 252.092 92.1364C250.774 92.4545 249.172 92.6477 247.285 92.7159C243.785 92.8523 240.717 92.3864 238.081 91.3182C235.467 90.25 233.433 88.5909 231.978 86.3409C230.524 84.0909 229.808 81.25 229.831 77.8182V27.0909ZM285.047 93.0227C279.661 93.0227 275.024 91.9318 271.138 89.75C267.274 87.5455 264.297 84.4318 262.206 80.4091C260.115 76.3636 259.07 71.5795 259.07 66.0568C259.07 60.6705 260.115 55.9432 262.206 51.875C264.297 47.8068 267.24 44.6364 271.036 42.3636C274.854 40.0909 279.331 38.9545 284.467 38.9545C287.922 38.9545 291.138 39.5114 294.115 40.625C297.115 41.7159 299.729 43.3636 301.956 45.5682C304.206 47.7727 305.956 50.5455 307.206 53.8864C308.456 57.2045 309.081 61.0909 309.081 65.5455V69.5341H264.865V60.5341H295.411C295.411 58.4432 294.956 56.5909 294.047 54.9773C293.138 53.3636 291.877 52.1023 290.263 51.1932C288.672 50.2614 286.82 49.7955 284.706 49.7955C282.502 49.7955 280.547 50.3068 278.842 51.3295C277.161 52.3295 275.842 53.6818 274.888 55.3864C273.933 57.0682 273.445 58.9432 273.422 61.0114V69.5682C273.422 72.1591 273.899 74.3977 274.854 76.2841C275.831 78.1705 277.206 79.625 278.979 80.6477C280.752 81.6705 282.854 82.1818 285.286 82.1818C286.899 82.1818 288.377 81.9545 289.717 81.5C291.058 81.0455 292.206 80.3636 293.161 79.4545C294.115 78.5455 294.842 77.4318 295.342 76.1136L308.774 77C308.092 80.2273 306.695 83.0455 304.581 85.4545C302.49 87.8409 299.786 89.7045 296.467 91.0455C293.172 92.3636 289.365 93.0227 285.047 93.0227ZM316.638 92V39.6364H330.718V48.7727H331.263C332.218 45.5227 333.82 43.0682 336.07 41.4091C338.32 39.7273 340.911 38.8864 343.843 38.8864C344.57 38.8864 345.354 38.9318 346.195 39.0227C347.036 39.1136 347.775 39.2386 348.411 39.3977V52.2841C347.729 52.0795 346.786 51.8977 345.582 51.7386C344.377 51.5795 343.275 51.5 342.275 51.5C340.138 51.5 338.229 51.9659 336.548 52.8977C334.888 53.8068 333.57 55.0795 332.593 56.7159C331.638 58.3523 331.161 60.2386 331.161 62.375V92H316.638ZM368.522 61.7273V92H354V39.6364H367.841V48.875H368.454C369.613 45.8295 371.556 43.4205 374.284 41.6477C377.011 39.8523 380.318 38.9545 384.204 38.9545C387.841 38.9545 391.011 39.75 393.716 41.3409C396.42 42.9318 398.522 45.2045 400.022 48.1591C401.522 51.0909 402.272 54.5909 402.272 58.6591V92H387.75V61.25C387.772 58.0455 386.954 55.5455 385.295 53.75C383.636 51.9318 381.352 51.0227 378.443 51.0227C376.488 51.0227 374.761 51.4432 373.261 52.2841C371.784 53.125 370.625 54.3523 369.784 55.9659C368.966 57.5568 368.545 59.4773 368.522 61.7273Z" fill="#111F55"/>
<path d="M405.006 34.3523V22.1818H462.347V34.3523H440.972V92H426.381V34.3523H405.006ZM473.927 92L459.677 39.6364H474.37L482.484 74.8182H482.961L491.415 39.6364H505.836L514.427 74.6136H514.87L522.847 39.6364H537.506L523.29 92H507.915L498.915 59.0682H498.268L489.268 92H473.927ZM543.333 92V39.6364H557.856V92H543.333ZM550.629 32.8864C548.47 32.8864 546.618 32.1705 545.072 30.7386C543.549 29.2841 542.788 27.5455 542.788 25.5227C542.788 23.5227 543.549 21.8068 545.072 20.375C546.618 18.9205 548.47 18.1932 550.629 18.1932C552.788 18.1932 554.629 18.9205 556.152 20.375C557.697 21.8068 558.47 23.5227 558.47 25.5227C558.47 27.5455 557.697 29.2841 556.152 30.7386C554.629 32.1705 552.788 32.8864 550.629 32.8864ZM582.092 61.7273V92H567.57V39.6364H581.411V48.875H582.024C583.183 45.8295 585.126 43.4205 587.854 41.6477C590.581 39.8523 593.888 38.9545 597.774 38.9545C601.411 38.9545 604.581 39.75 607.286 41.3409C609.99 42.9318 612.092 45.2045 613.592 48.1591C615.092 51.0909 615.842 54.5909 615.842 58.6591V92H601.32V61.25C601.342 58.0455 600.524 55.5455 598.865 53.75C597.206 51.9318 594.922 51.0227 592.013 51.0227C590.058 51.0227 588.331 51.4432 586.831 52.2841C585.354 53.125 584.195 54.3523 583.354 55.9659C582.536 57.5568 582.115 59.4773 582.092 61.7273ZM649.232 93.0227C643.846 93.0227 639.209 91.9318 635.323 89.75C631.459 87.5455 628.482 84.4318 626.391 80.4091C624.3 76.3636 623.255 71.5795 623.255 66.0568C623.255 60.6705 624.3 55.9432 626.391 51.875C628.482 47.8068 631.425 44.6364 635.221 42.3636C639.039 40.0909 643.516 38.9545 648.652 38.9545C652.107 38.9545 655.323 39.5114 658.3 40.625C661.3 41.7159 663.914 43.3636 666.141 45.5682C668.391 47.7727 670.141 50.5455 671.391 53.8864C672.641 57.2045 673.266 61.0909 673.266 65.5455V69.5341H629.05V60.5341H659.596C659.596 58.4432 659.141 56.5909 658.232 54.9773C657.323 53.3636 656.062 52.1023 654.448 51.1932C652.857 50.2614 651.005 49.7955 648.891 49.7955C646.687 49.7955 644.732 50.3068 643.027 51.3295C641.346 52.3295 640.027 53.6818 639.073 55.3864C638.118 57.0682 637.63 58.9432 637.607 61.0114V69.5682C637.607 72.1591 638.084 74.3977 639.039 76.2841C640.016 78.1705 641.391 79.625 643.164 80.6477C644.937 81.6705 647.039 82.1818 649.471 82.1818C651.084 82.1818 652.562 81.9545 653.902 81.5C655.243 81.0455 656.391 80.3636 657.346 79.4545C658.3 78.5455 659.027 77.4318 659.527 76.1136L672.959 77C672.277 80.2273 670.88 83.0455 668.766 85.4545C666.675 87.8409 663.971 89.7045 660.652 91.0455C657.357 92.3636 653.55 93.0227 649.232 93.0227Z" fill="#2647C4"/>
</svg>
